<svg xmlns="http://www.w3.org/2000/svg" width="1600" height="1024" viewBox="0 0 100 64">
  <defs>
    <style>
      .paper{fill:#0D1420}
      .slab{fill:#111827;stroke:#D8E1EC;stroke-width:.36}
      .stripe{stroke:#63748A;stroke-width:.18}
      .drive{fill:#121C2B;stroke:#8FA2B8;stroke-width:.24}
      .core{fill:#101824;stroke:#A7B4C6;stroke-width:.28}
      .door{fill:none;stroke:#60A5FA;stroke-width:.26;stroke-linecap:round}
      .label{fill:#AAB7C8;font-family:Inter,Arial,sans-serif;font-size:1.35px;font-weight:700;letter-spacing:.04px}
      .small{fill:#7F8EA3;font-family:Inter,Arial,sans-serif;font-size:.95px;font-weight:700;letter-spacing:.04px}
    </style>
  </defs>
  <rect width="100" height="64" fill="#070A0F"/>
  <rect x="7" y="7" width="86" height="50" rx="1.1" class="paper"/>
  <rect x="9" y="9" width="82" height="46" rx=".6" class="slab"/>
  <rect x="11" y="29" width="78" height="6" class="drive"/>
  <rect x="39" y="36.5" width="20" height="12.5" class="core"/>
  <path d="M12 11v16M20 11v16M28 11v16M36 11v16M44 11v16M52 11v16M60 11v16M68 11v16M76 11v16M84 11v16M12 38v15M20 38v15M28 38v15M36 38v15M64 38v15M72 38v15M80 38v15M88 38v15" class="stripe"/>
  <path d="M11 11H89V27H11ZM11 38H89V53H11Z" fill="none" stroke="#6F8196" stroke-width=".18"/>
  <path d="M9 32H4M91 32h5M49 49v7" class="door"/>
  <text x="13" y="15" class="label">PARKING ROW C</text>
  <text x="44" y="33.5" class="label">DRIVE AISLE</text>
  <text x="42" y="42" class="label">ELEVATOR VESTIBULE</text>
  <text x="13" y="48" class="small">RESERVED / VISITOR</text>
</svg>
